<svg width="12" height="12" viewBox="0 0 12 12" fill="none" xmlns="http://www.w3.org/2000/svg">
<g clip-path="url(#clip0_7_2)">
<path d="M6.14994 0C5.04479 0 4.00942 0.298796 3.12023 0.820002C2.94111 0.925002 2.86256 1.15835 3.01469 1.29965C3.14854 1.42397 3.32788 1.5 3.52496 1.5H8.77488C8.97198 1.5 9.15132 1.42397 9.28518 1.29965C9.43734 1.15835 9.35874 0.925002 9.17964 0.820002C8.29044 0.298796 7.25508 0 6.14994 0Z" fill="white"/>
<path d="M12.1499 6C12.1499 5.58578 11.8141 5.25 11.3999 5.25H0.899993C0.485774 5.25 0.149999 5.58578 0.149999 6C0.149999 6.41424 0.485774 6.75 0.899993 6.75H11.3999C11.8141 6.75 12.1499 6.41424 12.1499 6Z" fill="white"/>
<path d="M9.28518 10.7003C9.43734 10.8416 9.35874 11.075 9.17964 11.18C8.29044 11.7012 7.25508 12 6.14994 12C5.04479 12 4.00942 11.7012 3.12023 11.18C2.94111 11.075 2.86255 10.8416 3.01468 10.7003C3.14854 10.576 3.32788 10.5 3.52496 10.5H8.77488C8.97198 10.5 9.15132 10.576 9.28518 10.7003Z" fill="white"/>
<path d="M0.899993 3.375C0.899993 2.96078 1.23576 2.625 1.64998 2.625H10.6499C11.0641 2.625 11.3999 2.96078 11.3999 3.375C11.3999 3.78922 11.0641 4.125 10.6499 4.125H1.64998C1.23576 4.125 0.899993 3.78922 0.899993 3.375Z" fill="white"/>
<path d="M0.899993 8.625C0.899993 8.21076 1.23576 7.875 1.64998 7.875H10.6499C11.0641 7.875 11.3999 8.21076 11.3999 8.625C11.3999 9.03924 11.0641 9.375 10.6499 9.375H1.64998C1.23576 9.375 0.899993 9.03924 0.899993 8.625Z" fill="white"/>
</g>
<defs>
<clipPath id="clip0_7_2">
<rect width="12" height="12" fill="white"/>
</clipPath>
</defs>
</svg>
